<svg width="24" height="24" viewBox="0 0 24 24" fill="none" xmlns="http://www.w3.org/2000/svg">
<g clip-path="url(#clip0_169_970)">
<path fill-rule="evenodd" clip-rule="evenodd" d="M-0.91875 6.34167C-0.75492 5.6054 -0.352185 4.94802 0.223498 4.47718C0.79918 4.00634 1.51369 3.74995 2.25 3.75H21.75C22.4863 3.74995 23.2008 4.00634 23.7765 4.47718C24.3522 4.94802 24.7549 5.6054 24.9187 6.34167L12 14.44L-0.91875 6.34167ZM-1 8.245V20.085L8.42988 14.155L-1 8.245ZM9.98663 15.1333L-0.689625 21.845C-0.425844 22.4155 -0.00951922 22.8974 0.510895 23.2346C1.03131 23.5719 1.63441 23.7506 2.25 23.75H21.75C22.3655 23.7501 22.9684 23.571 23.4885 23.2335C24.0086 22.8959 24.4246 22.4139 24.688 21.8433L14.0118 15.1317L12 16.3933L9.98663 15.1317V15.1333ZM15.5701 14.1567L25 20.085V8.245L15.5701 14.155V14.1567Z" fill="#e44203"/>
</g>
<defs>
<clipPath id="clip0_169_970">
<rect width="24" height="26" fill="white" transform="translate(0 0.624512)"/>
</clipPath>
</defs>
</svg>
