<svg width="24" height="25" viewBox="0 0 24 25" fill="none" xmlns="http://www.w3.org/2000/svg">
<g clip-path="url(#clip0_169_962)">
<path d="M18.8481 12.8517C18.7367 12.7402 18.6045 12.6517 18.4589 12.5913C18.3133 12.531 18.1573 12.4999 17.9997 12.4999C17.8421 12.4999 17.686 12.531 17.5405 12.5913C17.3949 12.6517 17.2626 12.7402 17.1513 12.8517L15.2385 14.7645C14.3517 14.5005 12.6969 13.9005 11.6482 12.8517C10.5994 11.8029 9.99938 10.1481 9.73538 9.26135L11.6482 7.34857C11.7597 7.23723 11.8482 7.10498 11.9085 6.95941C11.9689 6.81383 12 6.65778 12 6.50018C12 6.34258 11.9689 6.18653 11.9085 6.04095C11.8482 5.89538 11.7597 5.76313 11.6482 5.65179L6.84821 0.851838C6.73686 0.740304 6.60462 0.651819 6.45904 0.591447C6.31347 0.531075 6.15741 0.5 5.99982 0.5C5.84222 0.5 5.68616 0.531075 5.54059 0.591447C5.39501 0.651819 5.26277 0.740304 5.15142 0.851838L1.89706 4.10621C1.44106 4.5622 1.18426 5.18859 1.19386 5.82819C1.22146 7.53697 1.67386 13.4721 6.35141 18.1497C11.029 22.8272 16.9641 23.2784 18.6741 23.3072H18.7077C19.3413 23.3072 19.9401 23.0576 20.3937 22.604L23.648 19.3497C23.7596 19.2383 23.8481 19.1061 23.9084 18.9605C23.9688 18.8149 23.9999 18.6589 23.9999 18.5013C23.9999 18.3437 23.9688 18.1876 23.9084 18.042C23.8481 17.8965 23.7596 17.7642 23.648 17.6529L18.8481 12.8517ZM18.6957 20.906C17.1981 20.8808 12.0742 20.4788 8.04819 16.4517C4.00904 12.4125 3.61784 7.27057 3.59384 5.80299L5.99982 3.39701L9.10298 6.50018L7.5514 8.05177C7.41036 8.1927 7.30665 8.36657 7.24967 8.55764C7.19268 8.74872 7.1842 8.95098 7.225 9.14615C7.2538 9.28415 7.9582 12.5565 9.95018 14.5485C11.9422 16.5405 15.2145 17.2449 15.3525 17.2737C15.5476 17.3156 15.75 17.3078 15.9413 17.251C16.1325 17.1942 16.3064 17.0901 16.4469 16.9485L17.9997 15.3969L21.1029 18.5001L18.6957 20.906Z" fill="#e44203"/>
</g>
<defs>
<clipPath id="clip0_169_962">
<rect width="24" height="24" fill="white" transform="translate(0 0.5)"/>
</clipPath>
</defs>
</svg>
