<?xml version="1.0" encoding="iso-8859-1"?>
<!-- Uploaded to: SVG Repo, www.svgrepo.com, Generator: SVG Repo Mixer Tools -->
<svg fill="#000000" version="1.1" id="Layer_1" xmlns="http://www.w3.org/2000/svg" xmlns:xlink="http://www.w3.org/1999/xlink" 
	 viewBox="0 0 512.361 512.361" xml:space="preserve">
<g>
	<g>
		<path d="M405.675,266.897c-12.162,0-21.675-9.633-21.795-21.434v-85.253c0-11.68,9.513-21.313,21.313-21.313h87.902l-26.13-52.26
			c-3.612-7.225-10.958-11.801-19.146-11.801H319.94c-11.801,0-21.313,9.513-21.313,21.313v21.434H21.313
			C9.513,117.584,0,127.097,0,138.898v106.566v106.687c0,11.801,9.513,21.313,21.313,21.313h21.434
			c0,35.281,28.659,64.06,64.06,64.06c35.402,0,64.06-28.659,64.06-64.06h170.747c0,35.281,28.659,64.06,64.06,64.06
			c35.402,0,64.06-28.659,64.06-64.06h21.313c11.801,0,21.313-9.513,21.313-21.313v-85.253H405.675z M106.687,394.777
			c-11.68,0-21.313-9.513-21.313-21.313c0-4.696,1.806-8.911,4.455-12.403c8.068-10.958,25.648-10.958,33.836,0
			c2.649,3.612,4.455,7.706,4.455,12.403C128,385.264,118.367,394.777,106.687,394.777z M298.747,224.151h-256v-64.06h256V224.151z
			 M405.313,394.897c-11.68,0-21.313-9.513-21.313-21.313c0-4.696,1.806-8.911,4.455-12.403c8.188-10.958,25.648-10.958,33.716,0
			c2.649,3.612,4.455,7.706,4.455,12.403C426.627,385.264,416.993,394.897,405.313,394.897z"/>
	</g>
</g>
<g>
	<g>
		<rect x="426.747" y="181.524" width="85.253" height="42.747"/>
	</g>
</g>
</svg>